<svg width="155" height="69" viewBox="0 0 155 69" fill="none" xmlns="http://www.w3.org/2000/svg">
<path d="M0 15.999H4.47282V37.2735H0V15.999Z" fill="#29292E"/>
<path d="M22.5872 29.6181C22.5872 29.6755 22.5585 30.0769 22.5012 30.8223H10.8317C11.042 31.7781 11.5389 32.5331 12.3226 33.0874C13.1063 33.6417 14.0812 33.9189 15.2472 33.9189C16.05 33.9189 16.7572 33.8042 17.3689 33.5748C17.9997 33.3264 18.5827 32.9441 19.1179 32.428L21.4977 35.0084C20.0449 36.6714 17.9232 37.5029 15.1325 37.5029C13.3931 37.5029 11.8543 37.1684 10.5163 36.4994C9.1783 35.8113 8.14611 34.8651 7.41975 33.6609C6.6934 32.4566 6.33022 31.0899 6.33022 29.5608C6.33022 28.0507 6.68384 26.6936 7.39108 25.4894C8.11744 24.266 9.10184 23.3199 10.3443 22.6508C11.6059 21.9627 13.0108 21.6187 14.5591 21.6187C16.0691 21.6187 17.4358 21.9436 18.6591 22.5935C19.8825 23.2434 20.8382 24.18 21.5263 25.4033C22.2336 26.6076 22.5872 28.0125 22.5872 29.6181ZM14.5877 25.0019C13.5747 25.0019 12.7241 25.2887 12.0359 25.8621C11.3478 26.4355 10.9273 27.2192 10.7744 28.2132H18.3724C18.2195 27.2384 17.799 26.4642 17.1109 25.8908C16.4227 25.2982 15.5817 25.0019 14.5877 25.0019Z" fill="#29292E"/>
<path d="M34.3673 36.5281C33.9277 36.853 33.3829 37.1015 32.733 37.2735C32.1022 37.4264 31.4332 37.5029 30.726 37.5029C28.891 37.5029 27.4669 37.0346 26.4539 36.098C25.4599 35.1614 24.9629 33.7851 24.9629 31.9692V25.6327H22.5832V22.1921H24.9629V18.4361H29.4357V22.1921H33.2778V25.6327H29.4357V31.9119C29.4357 32.5618 29.5982 33.0683 29.9232 33.4315C30.2672 33.7755 30.7451 33.9476 31.3568 33.9476C32.064 33.9476 32.6661 33.7564 33.1631 33.3741L34.3673 36.5281Z" fill="#29292E"/>
<path d="M55.4862 21.6187C57.4168 21.6187 58.9459 22.1921 60.0737 23.339C61.2206 24.4667 61.794 26.1679 61.794 28.4426V37.2735H57.3212V29.1307C57.3212 27.9074 57.0631 26.9994 56.5471 26.4069C56.0501 25.7952 55.3333 25.4894 54.3967 25.4894C53.3454 25.4894 52.5139 25.8334 51.9022 26.5216C51.2905 27.1906 50.9847 28.1941 50.9847 29.5321V37.2735H46.5119V29.1307C46.5119 26.7031 45.537 25.4894 43.5873 25.4894C42.5552 25.4894 41.7332 25.8334 41.1216 26.5216C40.5099 27.1906 40.2041 28.1941 40.2041 29.5321V37.2735H35.7312V21.848H40.0034V23.6257C40.5768 22.9758 41.2745 22.4788 42.0964 22.1348C42.9375 21.7907 43.855 21.6187 44.8489 21.6187C45.9384 21.6187 46.9228 21.8385 47.8021 22.2781C48.6814 22.6986 49.3886 23.3199 49.9238 24.1418C50.5546 23.339 51.3479 22.7177 52.3036 22.2781C53.2785 21.8385 54.3393 21.6187 55.4862 21.6187Z" fill="#29292E"/>
<path d="M79.9344 29.6181C79.9344 29.6755 79.9057 30.0769 79.8484 30.8223H68.1789C68.3891 31.7781 68.8861 32.5331 69.6698 33.0874C70.4535 33.6417 71.4284 33.9189 72.5944 33.9189C73.3972 33.9189 74.1044 33.8042 74.7161 33.5748C75.3469 33.3264 75.9299 32.9441 76.4651 32.428L78.8448 35.0084C77.3921 36.6714 75.2704 37.5029 72.4797 37.5029C70.7402 37.5029 69.2015 37.1684 67.8635 36.4994C66.5255 35.8113 65.4933 34.8651 64.7669 33.6609C64.0406 32.4566 63.6774 31.0899 63.6774 29.5608C63.6774 28.0507 64.031 26.6936 64.7383 25.4894C65.4646 24.266 66.449 23.3199 67.6915 22.6508C68.953 21.9627 70.3579 21.6187 71.9062 21.6187C73.4163 21.6187 74.783 21.9436 76.0063 22.5935C77.2296 23.2434 78.1854 24.18 78.8735 25.4033C79.5807 26.6076 79.9344 28.0125 79.9344 29.6181ZM71.9349 25.0019C70.9218 25.0019 70.0712 25.2887 69.3831 25.8621C68.695 26.4355 68.2745 27.2192 68.1215 28.2132H75.7196C75.5667 27.2384 75.1462 26.4642 74.458 25.8908C73.7699 25.2982 72.9289 25.0019 71.9349 25.0019Z" fill="#29292E"/>
<path d="M97.6469 45L81.25 55V15C81.25 14.337 81.599 13.7011 82.2202 13.2322C82.8414 12.7634 83.684 12.5 84.5625 12.5H137.562C138.441 12.5 139.284 12.7634 139.905 13.2322C140.526 13.7011 140.875 14.337 140.875 15V42.5C140.875 43.163 140.526 43.7989 139.905 44.2678C139.284 44.7366 138.441 45 137.562 45H97.6469Z" stroke="#8540BE" stroke-width="2" stroke-linecap="round" stroke-linejoin="round"/>
<path d="M106.086 21.848L103.018 37.2735H98.7747L99.0615 35.7539C97.7808 36.9199 96.2038 37.5029 94.3306 37.5029C93.1264 37.5029 92.0177 37.2257 91.0047 36.6714C89.9916 36.1171 89.1792 35.3238 88.5675 34.2916C87.975 33.2403 87.6787 32.0074 87.6787 30.593C87.6787 28.8918 88.0514 27.3626 88.7969 26.0055C89.5615 24.6292 90.5937 23.5588 91.8935 22.7942C93.1933 22.0105 94.6269 21.6187 96.1943 21.6187C98.5645 21.6187 100.237 22.3928 101.212 23.9411L101.613 21.848H106.086ZM95.7068 33.8042C96.5861 33.8042 97.3698 33.594 98.0579 33.1734C98.7461 32.7338 99.2813 32.1317 99.6636 31.3671C100.046 30.6025 100.237 29.7233 100.237 28.7293C100.237 27.678 99.9216 26.8465 99.2908 26.2348C98.6792 25.6232 97.819 25.3173 96.7104 25.3173C95.8311 25.3173 95.0474 25.5372 94.3593 25.9768C93.6711 26.3973 93.1359 26.9899 92.7536 27.7544C92.3713 28.519 92.1802 29.3983 92.1802 30.3923C92.1802 31.4436 92.486 32.2751 93.0977 32.8867C93.7285 33.4984 94.5982 33.8042 95.7068 33.8042Z" fill="url(#paint0_linear_6_36)"/>
<path d="M111.632 37.5029C110.294 37.5029 109.023 37.3595 107.819 37.0728C106.634 36.767 105.707 36.3751 105.038 35.8973L106.758 32.6573C107.427 33.097 108.239 33.4506 109.195 33.7182C110.17 33.9858 111.145 34.1196 112.119 34.1196C113.133 34.1196 113.888 33.9954 114.385 33.7469C114.882 33.4793 115.13 33.1065 115.13 32.6287C115.13 32.2464 114.91 31.9692 114.471 31.7972C114.031 31.6252 113.324 31.4436 112.349 31.2524C111.24 31.0422 110.323 30.8128 109.596 30.5643C108.889 30.3158 108.268 29.9144 107.733 29.3601C107.217 28.7866 106.959 28.0125 106.959 27.0376C106.959 25.3364 107.666 24.008 109.08 23.0523C110.514 22.0965 112.387 21.6187 114.7 21.6187C115.77 21.6187 116.812 21.7333 117.825 21.9627C118.838 22.1921 119.698 22.5075 120.406 22.9089L118.8 26.1775C117.538 25.3938 116.019 25.0019 114.241 25.0019C113.266 25.0019 112.521 25.1453 112.005 25.432C111.508 25.7187 111.259 26.0819 111.259 26.5216C111.259 26.923 111.479 27.2192 111.919 27.4104C112.358 27.5824 113.094 27.7736 114.127 27.9838C115.216 28.1941 116.105 28.4235 116.793 28.6719C117.5 28.9013 118.112 29.2932 118.628 29.8475C119.144 30.4018 119.402 31.1568 119.402 32.1126C119.402 33.8329 118.676 35.1614 117.223 36.098C115.79 37.0346 113.926 37.5029 111.632 37.5029Z" fill="url(#paint1_linear_6_36)"/>
<path d="M131.595 28.5573L136.899 37.2735H131.71L128.04 31.2811L125.316 33.5462L124.57 37.2735H120.097L124.341 15.999H128.814L126.434 27.8978L133.831 21.848H139.652L131.595 28.5573Z" fill="url(#paint2_linear_6_36)"/>
<defs>
<linearGradient id="paint0_linear_6_36" x1="87.6787" y1="15.999" x2="99.7578" y2="50.1105" gradientUnits="userSpaceOnUse">
<stop stop-color="#3A47BD"/>
<stop offset="0.5625" stop-color="#3A47BD"/>
<stop offset="1" stop-color="#FF59F8"/>
</linearGradient>
<linearGradient id="paint1_linear_6_36" x1="87.6787" y1="15.999" x2="99.7578" y2="50.1105" gradientUnits="userSpaceOnUse">
<stop stop-color="#3A47BD"/>
<stop offset="0.5625" stop-color="#3A47BD"/>
<stop offset="1" stop-color="#FF59F8"/>
</linearGradient>
<linearGradient id="paint2_linear_6_36" x1="87.6787" y1="15.999" x2="99.7578" y2="50.1105" gradientUnits="userSpaceOnUse">
<stop stop-color="#3A47BD"/>
<stop offset="0.5625" stop-color="#3A47BD"/>
<stop offset="1" stop-color="#FF59F8"/>
</linearGradient>
</defs>
</svg>
